<?xml version="1.0" encoding="utf-8"?>
<!-- Generator: Adobe Illustrator 28.3.0, SVG Export Plug-In . SVG Version: 6.00 Build 0)  -->
<svg version="1.1" id="Layer_1" xmlns="http://www.w3.org/2000/svg" xmlns:xlink="http://www.w3.org/1999/xlink" x="0px" y="0px"
	 viewBox="0 0 220 175" style="enable-background:new 0 0 220 175;" xml:space="preserve">
<style type="text/css">
	.st0{fill:#FFFFFF;}
</style>
<g>
	<path class="st0" d="M47.67,121.27c0.95,0.2,1.67,0.53,2.14,0.98c0.66,0.62,0.99,1.38,0.99,2.29c0,0.68-0.22,1.34-0.65,1.97
		c-0.43,0.63-1.03,1.08-1.78,1.37c-0.76,0.29-1.91,0.43-3.46,0.43h-6.5v-0.38h0.52c0.58,0,0.99-0.18,1.24-0.55
		c0.16-0.24,0.23-0.74,0.23-1.51v-8.9c0-0.85-0.1-1.39-0.29-1.62c-0.26-0.3-0.66-0.45-1.18-0.45h-0.52v-0.38h5.95
		c1.11,0,2,0.08,2.67,0.24c1.02,0.24,1.79,0.68,2.33,1.29c0.54,0.62,0.8,1.33,0.8,2.14c0,0.69-0.21,1.31-0.63,1.85
		C49.11,120.61,48.49,121.01,47.67,121.27z M42.35,120.73c0.25,0.05,0.54,0.08,0.86,0.11c0.32,0.02,0.68,0.04,1.06,0.04
		c0.99,0,1.73-0.11,2.23-0.32c0.5-0.21,0.88-0.54,1.14-0.98c0.26-0.44,0.4-0.92,0.4-1.44c0-0.81-0.33-1.49-0.99-2.06
		c-0.66-0.57-1.62-0.85-2.87-0.85c-0.68,0-1.29,0.07-1.83,0.22V120.73z M42.35,127.31c0.79,0.18,1.56,0.27,2.33,0.27
		c1.23,0,2.16-0.28,2.8-0.83c0.64-0.55,0.97-1.23,0.97-2.05c0-0.54-0.15-1.05-0.44-1.54c-0.29-0.49-0.77-0.88-1.42-1.17
		c-0.66-0.28-1.47-0.43-2.44-0.43c-0.42,0-0.78,0.01-1.08,0.02c-0.3,0.01-0.54,0.04-0.72,0.07V127.31z"/>
	<path class="st0" d="M61.96,114.91v-0.38h4.88v0.38h-0.52c-0.54,0-0.96,0.23-1.25,0.68c-0.14,0.21-0.21,0.7-0.21,1.46v5.59
		c0,1.38-0.14,2.45-0.41,3.22c-0.27,0.76-0.81,1.42-1.62,1.96c-0.8,0.55-1.89,0.82-3.28,0.82c-1.5,0-2.64-0.26-3.42-0.78
		c-0.78-0.52-1.33-1.22-1.66-2.1c-0.22-0.6-0.32-1.73-0.32-3.39v-5.38c0-0.85-0.12-1.4-0.35-1.67c-0.23-0.26-0.61-0.4-1.13-0.4
		h-0.52v-0.38h5.95v0.38h-0.53c-0.57,0-0.97,0.18-1.22,0.54c-0.17,0.24-0.25,0.75-0.25,1.52v6c0,0.54,0.05,1.15,0.15,1.84
		c0.1,0.69,0.28,1.23,0.53,1.61c0.26,0.39,0.63,0.7,1.11,0.96c0.48,0.25,1.08,0.38,1.78,0.38c0.9,0,1.71-0.2,2.42-0.59
		c0.71-0.39,1.2-0.9,1.46-1.51c0.26-0.61,0.39-1.65,0.39-3.11v-5.58c0-0.86-0.09-1.4-0.28-1.62c-0.26-0.3-0.66-0.45-1.18-0.45H61.96
		z"/>
	<path class="st0" d="M73.39,120.67l5.08,5.05c0.83,0.83,1.54,1.4,2.13,1.7c0.59,0.3,1.18,0.47,1.77,0.51v0.38h-6.55v-0.38
		c0.39,0,0.68-0.07,0.85-0.2c0.17-0.13,0.26-0.28,0.26-0.44s-0.03-0.31-0.1-0.44c-0.06-0.13-0.28-0.37-0.64-0.72l-4.75-4.7v4.44
		c0,0.7,0.04,1.16,0.13,1.38c0.07,0.17,0.21,0.32,0.43,0.44c0.29,0.16,0.6,0.24,0.92,0.24h0.47v0.38h-5.87v-0.38H68
		c0.57,0,0.98-0.17,1.24-0.5c0.16-0.22,0.24-0.74,0.24-1.56v-8.9c0-0.7-0.04-1.16-0.13-1.39c-0.07-0.16-0.21-0.3-0.42-0.43
		c-0.3-0.16-0.61-0.24-0.93-0.24h-0.49v-0.38h5.87v0.38h-0.47c-0.32,0-0.63,0.08-0.92,0.23c-0.21,0.11-0.36,0.27-0.44,0.49
		c-0.08,0.22-0.12,0.66-0.12,1.34v4.22c0.14-0.13,0.6-0.56,1.39-1.29c2.01-1.84,3.23-3.07,3.65-3.69c0.18-0.27,0.27-0.51,0.27-0.71
		c0-0.16-0.07-0.29-0.21-0.41c-0.14-0.12-0.38-0.18-0.72-0.18H75.5v-0.38h5.06v0.38c-0.3,0.01-0.57,0.05-0.81,0.12
		c-0.24,0.07-0.54,0.22-0.89,0.43c-0.35,0.21-0.79,0.56-1.3,1.03c-0.15,0.14-0.84,0.83-2.06,2.08L73.39,120.67z"/>
	<path class="st0" d="M89.9,114.21c1.79,0,3.34,0.68,4.65,2.04c1.31,1.36,1.97,3.05,1.97,5.08c0,2.09-0.66,3.83-1.98,5.21
		c-1.32,1.38-2.92,2.07-4.8,2.07c-1.9,0-3.49-0.67-4.78-2.02c-1.29-1.35-1.94-3.09-1.94-5.23c0-2.19,0.74-3.97,2.23-5.35
		C86.56,114.81,88.1,114.21,89.9,114.21z M89.71,114.96c-1.23,0-2.22,0.46-2.97,1.37c-0.93,1.14-1.39,2.8-1.39,5
		c0,2.25,0.48,3.98,1.44,5.19c0.74,0.92,1.71,1.38,2.93,1.38c1.29,0,2.36-0.5,3.21-1.51c0.84-1.01,1.26-2.6,1.26-4.77
		c0-2.36-0.46-4.11-1.39-5.27C92.05,115.42,91.03,114.96,89.71,114.96z"/>
	<path class="st0" d="M109.35,124.49l0.34,0.07l-1.18,3.74H97.84v-0.38h0.52c0.58,0,1-0.19,1.25-0.57c0.14-0.22,0.21-0.72,0.21-1.5
		v-8.89c0-0.86-0.09-1.4-0.28-1.62c-0.26-0.3-0.66-0.45-1.18-0.45h-0.52v-0.38h6.24v0.38c-0.73-0.01-1.24,0.06-1.54,0.2
		c-0.29,0.14-0.5,0.32-0.6,0.54c-0.11,0.22-0.16,0.73-0.16,1.55v8.65c0,0.56,0.05,0.95,0.16,1.16c0.08,0.14,0.21,0.25,0.38,0.31
		c0.17,0.07,0.7,0.1,1.58,0.1h1.01c1.06,0,1.8-0.08,2.22-0.23c0.43-0.16,0.82-0.43,1.17-0.83
		C108.65,125.97,109,125.35,109.35,124.49z"/>
	<path class="st0" d="M119.75,123.69h-5.33l-0.93,2.17c-0.23,0.54-0.35,0.93-0.35,1.2c0,0.21,0.1,0.39,0.3,0.55
		c0.2,0.16,0.63,0.26,1.3,0.31v0.38h-4.34v-0.38c0.58-0.1,0.95-0.23,1.12-0.4c0.35-0.33,0.73-0.99,1.15-1.98l4.85-11.34h0.36
		l4.8,11.46c0.39,0.92,0.74,1.52,1.05,1.79c0.31,0.27,0.75,0.43,1.32,0.46v0.38h-5.43v-0.38c0.55-0.03,0.92-0.12,1.11-0.27
		c0.19-0.16,0.29-0.35,0.29-0.57c0-0.3-0.14-0.77-0.41-1.41L119.75,123.69z M119.47,122.94l-2.34-5.57l-2.4,5.57H119.47z"/>
</g>
<g>
	<polygon class="st0" points="4.42,77.1 65.42,5.4 121.76,78.57 123.3,77.39 66.23,3.27 65.5,2.33 2.48,76.39 2.98,173.32 
		128.71,173.57 128.71,171.63 4.91,171.39 	"/>
	<path class="st0" d="M119.69,90.47c-2.03,0-3.69,1.66-3.69,3.69c0,0.68,0.19,1.32,0.52,1.87H87.94c-0.53,0-0.97,0.43-0.97,0.97
		s0.43,0.97,0.97,0.97h0.51v4.06c0,0.4,0.33,0.73,0.73,0.73s0.73-0.32,0.73-0.73v-4.06h1.92v4.59c0,0.4,0.33,0.73,0.73,0.73
		s0.73-0.32,0.73-0.73v-4.59h23.24c-0.33,0.55-0.52,1.19-0.52,1.87c0,2.03,1.66,3.69,3.69,3.69s3.69-1.66,3.69-3.69
		c0-0.68-0.19-1.32-0.52-1.87h4.11c0.53,0,0.97-0.43,0.97-0.97s-0.43-0.97-0.97-0.97h-4.11c0.33-0.55,0.52-1.19,0.52-1.87
		C123.38,92.13,121.72,90.47,119.69,90.47z M119.69,102.08c-1.23,0-2.24-1-2.24-2.24c0-0.78,0.41-1.47,1.02-1.87h2.44
		c0.61,0.4,1.02,1.09,1.02,1.87C121.93,101.08,120.92,102.08,119.69,102.08z M120.91,96.04h-2.44c-0.61-0.4-1.02-1.09-1.02-1.87
		c0-1.23,1-2.24,2.24-2.24s2.24,1,2.24,2.24C121.93,94.95,121.52,95.64,120.91,96.04z"/>
	<path class="st0" d="M163.04,118.32c0.55-2.87,0.72-6.96-1.59-10.12c-1.51-2.06-4.02-3.52-7.06-4.13c2.66-2.57,5.48-5.97,5.3-10.03
		c-0.15-3.36-2.57-6.64-6.03-8.17c-3.39-1.5-7.06-1.23-9.68-0.68l0.26-1.4c0.07-0.39-0.18-0.77-0.58-0.85
		c-0.39-0.07-0.77,0.18-0.85,0.58l-0.39,2.05c-3.83,1.1-7.1,3.14-9.29,5.82c-2.7,3.3-3.62,7.47-2.67,12.05
		c0.08,0.39,0.46,0.65,0.86,0.56c0.39-0.08,0.64-0.47,0.56-0.86c-0.86-4.14-0.03-7.88,2.38-10.84c1.87-2.29,4.62-4.07,7.86-5.13
		l-4.31,22.83c-0.3,0.41-0.59,0.84-0.84,1.28c-0.7,1.25-0.69,2.4,0.01,3.1l-5.04,26.7c-0.82,4.61,0.07,4.89,0.5,5.02
		c0.09,0.03,0.19,0.06,0.32,0.06c0.5,0,1.37-0.5,2.9-3.78c0.17-0.36,0.01-0.79-0.35-0.96c-0.36-0.17-0.79-0.01-0.96,0.35
		c-0.54,1.17-0.98,1.91-1.29,2.37c0-0.56,0.08-1.46,0.31-2.79l4.99-26.4c0.26,0.01,0.51-0.01,0.73-0.04
		c2.71-0.35,4.64-1.91,6.51-3.42c0.41-0.33,0.83-0.67,1.25-0.99c2.14-1.63,4.22-3.37,6.2-5.19c3.16,0.4,5.76,1.74,7.23,3.74
		c2.01,2.74,1.84,6.4,1.34,8.99c-1.07,5.57-4.28,10.73-8.8,14.16s-10.35,5.12-16.01,4.65c-0.4-0.04-0.75,0.26-0.78,0.66
		c-0.03,0.4,0.26,0.75,0.66,0.78c0.66,0.06,1.33,0.08,2,0.08c5.36,0,10.74-1.78,15.01-5.02
		C158.5,129.72,161.91,124.24,163.04,118.32z M145.97,109.35c-0.44,0.33-0.86,0.68-1.28,1.02c-1.79,1.45-3.48,2.82-5.78,3.11
		c-0.1,0.01-0.19,0.02-0.27,0.02l0.55-2.9c2.59-3.35,7.07-5.41,11.83-5.41c0.01,0,0.01,0,0.02,0
		C149.39,106.64,147.7,108.03,145.97,109.35z M152.9,103.48c-0.12,0.11-0.23,0.22-0.35,0.33c-0.08-0.01-0.17-0.01-0.25-0.02
		c-4.77-0.34-9.41,1.26-12.62,4.15l4-21.19c0.05-0.01,0.1-0.03,0.15-0.04c2.43-0.57,6-0.95,9.24,0.49c2.96,1.31,5.04,4.09,5.16,6.9
		C158.4,97.83,155.47,101.07,152.9,103.48z"/>
	<path class="st0" d="M178.1,87.9c-0.11-1.01-0.23-2.06-1.07-2.23c-1.24-0.26-2.1,1.22-5.41,11.48c-0.08,0.24-7.76,24.21-9.3,41.17
		c-0.3,3.29-0.02,3.95,0.68,4.11c0.08,0.02,0.15,0.03,0.22,0.03c0.68,0,1.19-0.81,2.1-3.19c0.14-0.37-0.04-0.79-0.42-0.94
		c-0.38-0.14-0.79,0.04-0.94,0.42c-0.1,0.27-0.2,0.51-0.28,0.72c0.02-0.29,0.04-0.63,0.08-1.01c1.13-12.49,5.64-28.86,7.91-36.53
		c0.26,0.05,0.54-0.05,0.71-0.27c1.57-2.06,2.93-4.26,4.03-6.55C177.87,92.1,178.34,90.08,178.1,87.9z M172.61,98.85
		c0.24-0.78,0.38-1.22,0.39-1.25c0.82-2.54,2.58-7.99,3.61-9.91c0.02,0.14,0.03,0.28,0.04,0.38c0.21,1.88-0.23,3.67-1.54,6.4
		C174.39,95.97,173.55,97.44,172.61,98.85z"/>
	<path class="st0" d="M173.93,109.64c-0.44,0.58-0.39,1.35,0.1,1.72c0.49,0.37,1.24,0.2,1.68-0.39c0.44-0.58,0.39-1.35-0.1-1.72
		C175.12,108.88,174.37,109.05,173.93,109.64z"/>
	<path class="st0" d="M214.56,114.66c-0.29-0.27-0.75-0.25-1.03,0.05c-3,3.28-6.14,6.81-9.08,10.64c-0.65-1.56-1.59-3.09-2.8-4.52
		c-0.19-0.22-0.38-0.45-0.58-0.67c-0.94-1.07-1.82-2.07-2.09-3.3c-0.08-0.37-0.1-0.77-0.06-1.18c0.07-0.14,0.09-0.3,0.07-0.45
		c0.12-0.61,0.37-1.23,0.73-1.82c0.66-1.06,1.61-1.88,2.66-2.29c1.23-0.48,2.57-0.38,3.78,0.28c0.35,0.19,0.79,0.06,0.98-0.29
		c0.19-0.35,0.06-0.79-0.29-0.98c-1.59-0.87-3.37-1-5-0.36c-1.34,0.52-2.54,1.54-3.37,2.87c-0.49,0.78-0.8,1.62-0.95,2.46
		c-2.94,3.21-6,6.66-8.87,10.41c-0.65-1.56-1.59-3.09-2.8-4.52c-0.19-0.22-0.38-0.45-0.58-0.67c-0.86-0.99-1.68-1.92-2.01-3.03
		c-0.01-0.04-0.02-0.08-0.03-0.12c-0.01-0.05-0.03-0.1-0.04-0.15c-0.24-1.06,0.03-2.32,0.73-3.45c0.66-1.06,1.61-1.88,2.66-2.29
		c1.23-0.48,2.57-0.38,3.78,0.28c0.35,0.19,0.79,0.06,0.98-0.29c0.19-0.35,0.06-0.79-0.29-0.98c-1.59-0.87-3.37-1-5-0.36
		c-1.34,0.52-2.54,1.54-3.37,2.87c-0.89,1.42-1.22,3.03-0.94,4.44c-2.26,2.59-4.39,4.44-6.02,5.22c-0.73,0.35-1.05,0.33-1.19,0.26
		c-0.34-0.19-0.4-1.14-0.42-1.55c-0.11-1.94-0.03-4.05,0.25-6.28c0.05-0.4-0.23-0.76-0.63-0.81c-0.4-0.05-0.76,0.23-0.81,0.63
		c-0.29,2.32-0.37,4.52-0.26,6.54c0.04,0.75,0.12,2.15,1.16,2.74c0.29,0.16,0.6,0.23,0.91,0.23c0.59,0,1.17-0.23,1.61-0.44
		c2.06-0.98,4.27-3.1,5.96-4.98c0.49,0.92,1.18,1.71,1.86,2.49c0.19,0.22,0.38,0.43,0.56,0.65c1.32,1.57,2.3,3.25,2.87,4.95
		c-0.22,0.3-0.44,0.59-0.65,0.89c-1.02,1.41-2.02,2.86-2.99,4.3c-0.16,0.24-0.34,0.49-0.53,0.74c-0.75,1.01-1.6,2.16-1.64,3.46
		c-0.02,0.92,0.37,1.7,1.08,2.15c0.42,0.26,0.92,0.39,1.44,0.39c0.49,0,0.99-0.12,1.44-0.35c0.88-0.45,1.67-1.21,2.29-2.22
		c1.35-2.2,1.89-4.87,1.5-7.51c-0.08-0.53-0.19-1.06-0.34-1.6c2.67-3.55,5.54-6.86,8.34-9.94c0.36,1.57,1.4,2.76,2.41,3.9
		c0.19,0.22,0.38,0.43,0.56,0.65c1.32,1.57,2.29,3.25,2.87,4.95c-0.22,0.3-0.44,0.59-0.65,0.89c-1.02,1.41-2.02,2.86-2.99,4.3
		c-0.16,0.24-0.34,0.49-0.53,0.74c-0.75,1.01-1.6,2.16-1.64,3.46c-0.02,0.91,0.37,1.7,1.08,2.15c0.42,0.26,0.92,0.39,1.44,0.39
		c0.49,0,0.99-0.12,1.44-0.35c0.88-0.45,1.67-1.21,2.29-2.22c1.35-2.2,1.89-4.87,1.5-7.51c-0.08-0.53-0.19-1.06-0.34-1.6
		c3.07-4.08,6.4-7.83,9.58-11.3C214.87,115.39,214.85,114.93,214.56,114.66z M186.84,135.49c-0.48,0.77-1.07,1.36-1.71,1.68
		c-0.49,0.25-1.07,0.26-1.45,0.02c-0.28-0.18-0.42-0.47-0.41-0.88c0.02-0.84,0.73-1.79,1.35-2.63c0.21-0.28,0.41-0.55,0.58-0.8
		c0.94-1.4,1.91-2.81,2.9-4.18c0.02,0.09,0.03,0.17,0.04,0.26C188.48,131.26,188.01,133.58,186.84,135.49z M202.62,135.33
		c-0.48,0.77-1.07,1.36-1.71,1.68c-0.49,0.25-1.07,0.26-1.45,0.02c-0.28-0.18-0.42-0.47-0.41-0.88c0.02-0.84,0.73-1.79,1.35-2.63
		c0.21-0.28,0.41-0.55,0.58-0.8c0.94-1.4,1.91-2.81,2.9-4.18c0.01,0.09,0.03,0.17,0.04,0.26
		C204.26,131.1,203.8,133.42,202.62,135.33z"/>
	<path class="st0" d="M70.15,149.44c0.5-1.99-0.91-3.32-2.53-3.75c-1.23-0.33-2.3-0.09-2.99,0.17c-0.09,0.04-0.16,0.13-0.16,0.23
		v10.09h0.48v-4.93c0.77,0.14,1.53,0.14,2.26,0l0.12-0.02C68.15,151.06,69.82,150.75,70.15,149.44z M67.26,150.74l-0.13,0.02
		c-0.7,0.14-1.43,0.13-2.17-0.02v-4.49c0.62-0.21,1.52-0.37,2.54-0.1c1.39,0.37,2.6,1.49,2.18,3.17
		C69.43,150.33,68.02,150.6,67.26,150.74z"/>
	<path class="st0" d="M69.44,154.29c0.46,0.8,0.74,1.28,1.36,1.57c0.3,0.14,0.63,0.21,0.99,0.21c0.26,0,0.54-0.04,0.83-0.11
		l-0.12-0.47c-0.57,0.15-1.07,0.13-1.48-0.07c-0.48-0.23-0.72-0.63-1.14-1.37l-0.15-0.26c-0.48-0.83-1.01-1.67-1.57-2.49l-0.4,0.27
		c0.55,0.81,1.08,1.63,1.56,2.46L69.44,154.29z"/>
	<polygon class="st0" points="88.77,146.33 88.77,145.84 83.83,145.84 83.83,146 83.83,146.33 83.83,155.56 83.83,155.97 
		83.83,156.04 89.1,156.04 89.1,155.56 84.31,155.56 84.31,150.94 88.44,150.94 88.44,150.45 84.31,150.45 84.31,146.33 	"/>
	<path class="st0" d="M103.94,145.78l-4.04,10.35l0.45,0.18l1.42-3.63h4.93l1.36,3.39l0.45-0.18l-4.12-10.27L103.94,145.78
		L103.94,145.78z M106.51,152.18h-4.54l2.24-5.75L106.51,152.18z"/>
	<polygon class="st0" points="126.28,156.02 126.28,155.54 121.29,155.54 121.29,145.51 120.81,145.51 120.81,155.88 120.81,155.88 
		120.81,156.02 	"/>
	<polygon class="st0" points="136.45,146.66 140.08,146.66 140.08,155.8 140.56,155.8 140.56,146.66 144.19,146.66 144.19,146.17 
		136.45,146.17 	"/>
	<path class="st0" d="M160.66,145.76c-2.81,0-5.1,2.29-5.1,5.1c0,2.81,2.29,5.1,5.1,5.1c2.81,0,5.1-2.29,5.1-5.1
		C165.76,148.05,163.47,145.76,160.66,145.76z M160.66,155.48c-2.55,0-4.62-2.07-4.62-4.62c0-2.55,2.07-4.62,4.62-4.62
		s4.62,2.07,4.62,4.62C165.28,153.41,163.21,155.48,160.66,155.48z"/>
	<path class="st0" d="M185.3,155.36c-0.26-0.15-0.44-0.41-0.64-0.68l-0.13-0.18c-0.16-0.22-0.29-0.39-0.4-0.54
		c-0.17-0.23-0.3-0.4-0.41-0.56c-0.39-0.57-0.84-1.18-1.34-1.81c0.4-0.18,0.76-0.43,1.04-0.75c0.05-0.05,1.19-1.34,0.7-2.77
		c-0.42-1.21-1.68-1.61-2.16-1.76c-0.2-0.06-0.58-0.13-1.02-0.18c-0.43-0.05-0.81-0.06-0.97-0.06c-0.22-0.01-0.41,0-0.58,0
		c-0.25,0-0.46,0.01-0.62,0.01l0.01,0.36v9.53h0.48v-4.28h2.59c0.55,0.69,1.05,1.36,1.47,1.98c0.11,0.17,0.24,0.34,0.42,0.58
		c0.11,0.15,0.24,0.32,0.4,0.54l0.12,0.17c0.21,0.3,0.44,0.61,0.79,0.82c0.34,0.2,0.72,0.3,1.14,0.3c0.12,0,0.25-0.01,0.38-0.02
		l-0.06-0.48C185.81,155.66,185.43,155.44,185.3,155.36z M179.27,151.21v-4.66c0.05,0,0.09,0,0.15,0c0.15,0,0.33,0,0.54,0
		c0.16,0,0.52,0.01,0.93,0.06c0.4,0.05,0.76,0.11,0.93,0.16c0.41,0.13,1.51,0.47,1.85,1.45c0.4,1.16-0.56,2.25-0.6,2.29
		c-0.27,0.3-0.61,0.54-1.01,0.69H179.27z"/>
	<path class="st0" d="M202.27,145.8c-2.86,0-5.18,2.33-5.18,5.18c0,2.86,2.33,5.18,5.18,5.18c2.86,0,5.18-2.33,5.18-5.18
		C207.45,148.13,205.13,145.8,202.27,145.8z M206.06,153.74c-0.39,0.04-0.74,0.01-0.97-0.09c-0.06-0.02-0.1-0.05-0.11-0.06
		c-0.16-0.09-0.28-0.26-0.4-0.43l-0.36-0.49c-0.11-0.15-0.2-0.26-0.27-0.37c-0.24-0.36-0.53-0.74-0.84-1.13
		c0.24-0.12,0.45-0.28,0.63-0.48c0.08-0.09,0.82-0.95,0.48-1.93c-0.29-0.85-1.2-1.13-1.5-1.22c-0.14-0.04-0.4-0.09-0.69-0.12
		c-0.28-0.03-0.53-0.04-0.65-0.04c-0.15,0-0.28,0-0.39,0c-0.17,0-0.31,0-0.42,0.01l0,0.01l-0.05,0l-0.02,6.68l0.48,0l0.01-2.78h1.6
		c0.36,0.44,0.68,0.88,0.96,1.29c0.08,0.11,0.16,0.23,0.28,0.39l0.35,0.48c0.14,0.2,0.3,0.42,0.55,0.57
		c0.01,0.01,0.08,0.05,0.16,0.08c0.23,0.1,0.49,0.14,0.75,0.15c-0.86,0.89-2.05,1.44-3.38,1.44c-2.59,0-4.7-2.11-4.7-4.7
		c0-2.59,2.11-4.7,4.7-4.7c2.59,0,4.7,2.11,4.7,4.7C206.97,152.02,206.63,152.97,206.06,153.74z M202.76,150.8H201l0.01-2.95
		c0.1,0,0.22,0,0.36,0c0.11,0,0.34,0.01,0.61,0.04c0.3,0.03,0.52,0.08,0.61,0.11c0.26,0.08,0.97,0.3,1.18,0.92
		c0.25,0.73-0.36,1.42-0.39,1.45C203.22,150.56,203,150.71,202.76,150.8z"/>
</g>
</svg>
